<?xml version="1.0" encoding="utf-8"?>
<!-- Generator: Adobe Illustrator 25.3.1, SVG Export Plug-In . SVG Version: 6.00 Build 0)  -->
<svg version="1.1" id="Layer_1" xmlns="http://www.w3.org/2000/svg" xmlns:xlink="http://www.w3.org/1999/xlink" x="0px" y="0px"
	 viewBox="0 0 292 65" style="enable-background:new 0 0 292 65;" xml:space="preserve">
<style type="text/css">
	.st0{fill:#FFFFFF;}
	.st1{fill:#FFBDF9;}
</style>
<g>
	<g>
		<path class="st0" d="M60.8,46.8c-0.4,0-0.8-0.1-1.1-0.4c-0.3-0.2-0.6-0.5-0.7-0.9l-5.6-17c-0.2-0.8-0.2-1.4,0-1.9s0.7-0.7,1.4-0.7
			c0.5,0,0.9,0.1,1.2,0.4s0.6,0.7,0.8,1.4l4.8,15.1h-1.3l4.5-15.4c0.1-0.4,0.3-0.8,0.6-1.1c0.3-0.3,0.7-0.4,1.3-0.4
			c0.5,0,0.9,0.1,1.2,0.4c0.3,0.3,0.5,0.6,0.6,1.1l3.7,14.5h-0.6l4.5-14.2c0.4-1.2,1-1.8,2-1.8c0.7,0,1.2,0.2,1.4,0.7
			c0.3,0.5,0.2,1.1,0,1.9l-5.6,17c-0.1,0.4-0.3,0.7-0.6,0.9c-0.3,0.2-0.7,0.4-1.1,0.4s-0.8-0.1-1.1-0.4c-0.4-0.2-0.6-0.5-0.7-0.9
			l-3.9-14.6h0.4l-4.1,14.6c-0.1,0.4-0.3,0.7-0.7,0.9C61.6,46.7,61.2,46.8,60.8,46.8z"/>
		<path class="st0" d="M93.6,47c-2.1,0-4-0.5-5.6-1.4s-2.9-2.2-3.8-3.8s-1.4-3.4-1.4-5.5s0.4-3.9,1.3-5.5c0.9-1.6,2.1-2.9,3.6-3.8
			s3.3-1.4,5.3-1.4s3.7,0.4,5.1,1.3s2.5,2.1,3.2,3.6s1.1,3.3,1.1,5.4c0,0.5-0.2,0.9-0.5,1.2s-0.7,0.5-1.3,0.5H85.5v-3.1h15.2
			l-1.6,1.1c0-1.3-0.3-2.4-0.8-3.4s-1.2-1.8-2.1-2.4s-2-0.9-3.2-0.9c-1.4,0-2.7,0.3-3.7,1c-1,0.6-1.8,1.5-2.3,2.6s-0.8,2.4-0.8,3.8
			c0,1.4,0.3,2.7,1,3.8c0.6,1.1,1.5,2,2.6,2.6s2.4,1,3.8,1c0.8,0,1.6-0.1,2.4-0.4c0.8-0.3,1.5-0.6,2-1c0.4-0.3,0.8-0.4,1.2-0.4
			c0.4,0,0.8,0.1,1.2,0.4c0.4,0.4,0.7,0.8,0.7,1.3s-0.2,0.9-0.6,1.2c-0.9,0.7-1.9,1.3-3.2,1.7C96,46.8,94.8,47,93.6,47z"/>
		<path class="st0" d="M112.6,46.8c-1.1,0-2.1-0.3-3-0.9c-0.9-0.6-1.5-1.5-2-2.5c-0.5-1.1-0.7-2.3-0.7-3.7v-21c0-0.6,0.2-1,0.5-1.4
			c0.4-0.4,0.8-0.5,1.4-0.5s1,0.2,1.4,0.5c0.4,0.4,0.5,0.8,0.5,1.4v21c0,0.9,0.2,1.7,0.5,2.3c0.4,0.6,0.8,0.9,1.4,0.9h1
			c0.5,0,0.9,0.2,1.2,0.5c0.3,0.4,0.5,0.8,0.5,1.4s-0.2,1-0.7,1.4C114.1,46.6,113.4,46.8,112.6,46.8L112.6,46.8z"/>
		<path class="st0" d="M124.2,46.8c-1.1,0-2.1-0.3-3-0.9c-0.9-0.6-1.5-1.5-2-2.5c-0.5-1.1-0.7-2.3-0.7-3.7v-21c0-0.6,0.2-1,0.5-1.4
			c0.4-0.4,0.8-0.5,1.4-0.5s1,0.2,1.4,0.5c0.4,0.4,0.5,0.8,0.5,1.4v21c0,0.9,0.2,1.7,0.5,2.3c0.4,0.6,0.8,0.9,1.4,0.9h1
			c0.5,0,0.9,0.2,1.2,0.5c0.3,0.4,0.5,0.8,0.5,1.4s-0.2,1-0.7,1.4C125.6,46.6,125,46.8,124.2,46.8L124.2,46.8z"/>
		<path class="st0" d="M141.3,47c-2,0-3.7-0.5-5.3-1.4s-2.8-2.2-3.7-3.8s-1.4-3.4-1.4-5.5V18.8c0-0.6,0.2-1.1,0.6-1.4
			c0.4-0.4,0.8-0.5,1.4-0.5c0.6,0,1.1,0.2,1.4,0.5c0.4,0.4,0.5,0.8,0.5,1.4v10.4c0.9-1.1,2-1.9,3.2-2.6c1.3-0.6,2.6-0.9,4.1-0.9
			c1.8,0,3.5,0.5,5,1.4s2.6,2.2,3.5,3.8c0.8,1.6,1.3,3.4,1.3,5.4s-0.5,3.8-1.4,5.5c-0.9,1.6-2.2,2.9-3.7,3.8
			C145.1,46.5,143.3,47,141.3,47z M141.3,43.5c1.3,0,2.4-0.3,3.5-0.9c1-0.6,1.8-1.5,2.4-2.6c0.6-1.1,0.9-2.3,0.9-3.7
			s-0.3-2.6-0.9-3.7c-0.6-1.1-1.4-1.9-2.4-2.6c-1-0.6-2.2-0.9-3.5-0.9s-2.4,0.3-3.4,0.9s-1.8,1.5-2.4,2.6c-0.6,1.1-0.9,2.3-0.9,3.7
			s0.3,2.6,0.9,3.7c0.6,1.1,1.4,2,2.4,2.6C138.9,43.2,140,43.5,141.3,43.5z"/>
		<path class="st0" d="M167.5,47c-2.1,0-4-0.5-5.6-1.4s-2.9-2.2-3.8-3.8c-0.9-1.6-1.4-3.4-1.4-5.5s0.4-3.9,1.3-5.5
			c0.9-1.6,2.1-2.9,3.6-3.8s3.3-1.4,5.3-1.4s3.7,0.4,5.1,1.3c1.4,0.9,2.5,2.1,3.2,3.6s1.1,3.3,1.1,5.4c0,0.5-0.2,0.9-0.5,1.2
			s-0.7,0.5-1.3,0.5h-15.3v-3.1h15.2l-1.6,1.1c0-1.3-0.3-2.4-0.8-3.4s-1.2-1.8-2.1-2.4c-0.9-0.6-2-0.9-3.2-0.9c-1.4,0-2.7,0.3-3.7,1
			c-1,0.6-1.8,1.5-2.3,2.6s-0.8,2.4-0.8,3.8c0,1.4,0.3,2.7,1,3.8c0.6,1.1,1.5,2,2.6,2.6s2.4,1,3.8,1c0.8,0,1.6-0.1,2.4-0.4
			c0.8-0.3,1.5-0.6,2-1c0.4-0.3,0.8-0.4,1.2-0.4s0.8,0.1,1.2,0.4c0.4,0.4,0.7,0.8,0.7,1.3s-0.2,0.9-0.6,1.2
			c-0.9,0.7-1.9,1.3-3.2,1.7C169.9,46.8,168.7,47,167.5,47z"/>
		<path class="st0" d="M183.8,22.4c-0.7,0-1.3-0.2-1.8-0.7s-0.7-1.1-0.7-1.8s0.2-1.3,0.7-1.8s1.1-0.7,1.8-0.7s1.3,0.2,1.8,0.7
			s0.7,1.1,0.7,1.8s-0.2,1.3-0.7,1.8C185.1,22.2,184.5,22.4,183.8,22.4z M183.8,46.8c-0.6,0-1-0.2-1.4-0.6c-0.4-0.4-0.6-0.8-0.6-1.4
			v-17c0-0.6,0.2-1.1,0.6-1.4c0.4-0.4,0.8-0.5,1.4-0.5c0.6,0,1.1,0.2,1.4,0.5c0.4,0.4,0.5,0.8,0.5,1.4v17.1c0,0.6-0.2,1-0.5,1.4
			C184.9,46.6,184.4,46.8,183.8,46.8z"/>
		<path class="st0" d="M195.1,46.9c-0.6,0-1-0.2-1.4-0.6c-0.4-0.4-0.6-0.8-0.6-1.4V27.8c0-0.6,0.2-1.1,0.6-1.4
			c0.4-0.4,0.8-0.5,1.4-0.5c0.6,0,1.1,0.2,1.4,0.5c0.4,0.4,0.5,0.8,0.5,1.4v17.1c0,0.6-0.2,1-0.5,1.4
			C196.2,46.7,195.7,46.9,195.1,46.9z M210.8,46.9c-0.6,0-1-0.2-1.4-0.6c-0.4-0.4-0.6-0.8-0.6-1.4v-9.4c0-1.5-0.3-2.6-0.8-3.6
			c-0.5-0.9-1.2-1.6-2.1-2.1c-0.9-0.4-1.9-0.7-3.1-0.7c-1.1,0-2,0.2-2.9,0.7c-0.9,0.4-1.5,1-2.1,1.7c-0.5,0.7-0.8,1.6-0.8,2.5h-2.4
			c0-1.6,0.4-3.1,1.2-4.3c0.8-1.3,1.8-2.3,3.2-3c1.3-0.7,2.9-1.1,4.5-1.1c1.7,0,3.3,0.4,4.7,1.1c1.4,0.8,2.5,1.9,3.3,3.3
			c0.8,1.5,1.2,3.3,1.2,5.4v9.4c0,0.6-0.2,1-0.6,1.4C211.8,46.7,211.3,46.9,210.8,46.9z"/>
		<path class="st0" d="M228,47c-1.9,0-3.6-0.5-5-1.4c-1.5-0.9-2.6-2.2-3.4-3.8c-0.8-1.6-1.3-3.4-1.3-5.5s0.4-3.9,1.3-5.5
			c0.9-1.6,2.1-2.9,3.7-3.8c1.6-0.9,3.4-1.4,5.4-1.4s3.8,0.5,5.4,1.4c1.6,0.9,2.8,2.2,3.7,3.8s1.3,3.4,1.3,5.5h-2.2
			c0,2.1-0.4,3.9-1.2,5.5s-1.8,2.9-3.2,3.8C231.3,46.5,229.7,47,228,47z M228.6,55.5c-1.8,0-3.5-0.4-5.1-1.1s-2.9-1.8-4-3.1
			c-0.3-0.4-0.5-0.9-0.4-1.3s0.3-0.8,0.7-1.1c0.5-0.3,0.9-0.4,1.4-0.3c0.5,0.1,0.9,0.4,1.2,0.8c0.7,0.9,1.5,1.5,2.6,2
			c1,0.5,2.2,0.7,3.5,0.7c1.2,0,2.3-0.3,3.4-0.9c1-0.6,1.8-1.5,2.5-2.6c0.6-1.2,0.9-2.6,0.9-4.2v-5.5l1.3-3.4l2.5,0.8v8.3
			c0,2-0.4,3.9-1.3,5.5s-2.1,3-3.7,3.9C232.6,55.1,230.7,55.5,228.6,55.5z M228.7,43.5c1.3,0,2.5-0.3,3.5-0.9s1.8-1.5,2.4-2.5
			c0.6-1.1,0.9-2.3,0.9-3.7s-0.3-2.7-0.9-3.7c-0.6-1.1-1.4-1.9-2.4-2.6c-1-0.6-2.2-0.9-3.5-0.9s-2.5,0.3-3.5,0.9s-1.8,1.5-2.4,2.6
			c-0.6,1.1-0.9,2.3-0.9,3.7s0.3,2.6,0.9,3.7c0.6,1.1,1.4,1.9,2.4,2.5C226.2,43.2,227.4,43.5,228.7,43.5z"/>
	</g>
</g>
<path class="st1" d="M291.9,65c-14.8,0-26.8-12-26.9-27v-3c0-19.3-15.7-35-35-35H62C42.7,0,27,15.7,27,35v3.2
	C26.8,53,14.8,65,0.1,65H0l0,0h27h238H291.9L291.9,65L291.9,65z"/>
<g>
	<path d="M185.6,16c-0.7,0-1.4,0.3-1.9,0.8s-0.8,1.2-0.8,1.9c0,0.7,0.3,1.4,0.8,1.9s1.2,0.8,1.9,0.8s1.4-0.3,1.9-0.8
		s0.8-1.2,0.8-1.9c0-0.7-0.3-1.4-0.8-1.9S186.4,16,185.6,16z"/>
	<g>
		<path d="M78.7,25c-1,0-1.7,0.6-2.1,1.9l-4.5,14l-3.7-14.4c-0.1-0.5-0.3-0.8-0.7-1.1C67.4,25.2,67,25,66.4,25s-1,0.1-1.3,0.4
			s-0.6,0.7-0.7,1.1l-4.2,14.1l-4.4-13.8c-0.2-0.7-0.5-1.2-0.8-1.4c-0.3-0.3-0.8-0.4-1.3-0.4c-0.8,0-1.3,0.3-1.5,0.8s-0.2,1.2,0,2.1
			l6,18.1c0.1,0.4,0.4,0.7,0.8,1c0.4,0.3,0.8,0.4,1.2,0.4c0.5,0,0.9-0.1,1.2-0.4c0.4-0.3,0.6-0.6,0.7-1l4.2-14.8l4,14.8
			c0.1,0.4,0.4,0.7,0.7,1c0.4,0.3,0.8,0.4,1.2,0.4c0.5,0,0.9-0.1,1.2-0.4c0.4-0.3,0.6-0.6,0.7-1l6-18.1c0.3-0.8,0.3-1.5,0-2.1
			C80,25.3,79.5,25,78.7,25z"/>
		<path d="M99.5,26.3c-1.5-0.9-3.3-1.4-5.5-1.4s-4.1,0.5-5.7,1.4c-1.7,1-3,2.3-3.9,4C83.4,32,83,34,83,36.2s0.5,4.2,1.5,5.9
			s2.4,3,4.1,4c1.8,1,3.8,1.4,6,1.4c1.3,0,2.6-0.2,3.9-0.7c1.4-0.5,2.5-1.1,3.4-1.8c0.5-0.4,0.7-0.8,0.7-1.3s-0.3-0.9-0.7-1.3
			c-0.4-0.3-0.8-0.4-1.2-0.4c-0.5,0-0.9,0.2-1.3,0.5c-0.5,0.4-1.3,0.8-2.1,1.1c-0.9,0.3-1.7,0.5-2.6,0.5c-1.6,0-2.9-0.3-4.1-1
			s-2.1-1.6-2.8-2.8c-0.5-0.8-0.7-1.6-0.9-2.6h15.5c0.5,0,1-0.2,1.3-0.5c0.4-0.3,0.5-0.8,0.5-1.3c0-2.1-0.4-4-1.2-5.7
			C102.2,28.5,101,27.2,99.5,26.3z M90,29.4c1.1-0.7,2.4-1,4-1c1.4,0,2.5,0.3,3.5,0.9s1.7,1.5,2.2,2.6c0.4,0.8,0.6,1.6,0.7,2.5H86.8
			c0.1-0.8,0.4-1.5,0.7-2.2C88.1,31,88.9,30.1,90,29.4z"/>
		<path d="M115.8,43.3h-1c-0.6,0-1.1-0.3-1.5-1s-0.6-1.5-0.6-2.5V17.5c0-0.6-0.2-1.1-0.6-1.5s-0.9-0.6-1.5-0.6s-1.1,0.2-1.5,0.6
			c-0.4,0.4-0.6,0.9-0.6,1.5v22.3c0,1.5,0.3,2.8,0.8,3.9c0.5,1.1,1.2,2,2.2,2.7c0.9,0.7,2,1,3.2,1h0.1c0.8,0,1.5-0.2,2-0.6
			c0.5-0.4,0.8-0.9,0.8-1.5s-0.2-1.1-0.5-1.5C116.7,43.5,116.3,43.3,115.8,43.3z"/>
		<path d="M127.2,43.3h-1c-0.6,0-1.1-0.3-1.5-1s-0.6-1.5-0.6-2.5V17.5c0-0.6-0.2-1.1-0.6-1.5s-0.9-0.6-1.5-0.6s-1.1,0.2-1.5,0.6
			c-0.4,0.4-0.6,0.9-0.6,1.5v22.3c0,1.5,0.3,2.8,0.8,3.9c0.5,1.1,1.2,2,2.2,2.7c0.9,0.7,2,1,3.2,1h0.1c0.8,0,1.5-0.2,2-0.6
			c0.5-0.4,0.8-0.9,0.8-1.5s-0.2-1.1-0.5-1.5C128.2,43.5,127.7,43.3,127.2,43.3z"/>
		<path d="M148.8,26.4c-1.6-1-3.4-1.5-5.3-1.5c-1.6,0-3.1,0.3-4.4,1c-1.3,0.7-2.5,1.6-3.4,2.7v-11c0-0.6-0.2-1.1-0.6-1.5
			c-0.4-0.4-0.9-0.6-1.5-0.6s-1.1,0.2-1.5,0.6c-0.4,0.4-0.6,0.9-0.6,1.5v18.6c0,2.2,0.5,4.1,1.5,5.8s2.3,3.1,4,4.1s3.6,1.5,5.7,1.5
			c2.1,0,4.1-0.5,5.8-1.5s3-2.3,4-4.1c1-1.7,1.5-3.6,1.5-5.8c0-2.1-0.5-4.1-1.4-5.8C151.7,28.7,150.4,27.4,148.8,26.4z M149,40.1
			c-0.6,1.2-1.5,2.1-2.6,2.8s-2.3,1-3.7,1s-2.6-0.3-3.7-1c-1.1-0.7-2-1.6-2.6-2.8s-0.9-2.5-0.9-3.9c0-1.5,0.3-2.8,0.9-3.9
			c0.6-1.1,1.5-2,2.6-2.7s2.3-1,3.7-1s2.6,0.3,3.7,1c1.1,0.7,2,1.6,2.6,2.7c0.6,1.1,1,2.4,1,3.9C149.9,37.6,149.6,38.9,149,40.1z"/>
		<path d="M174.4,26.3c-1.5-0.9-3.3-1.4-5.5-1.4s-4.1,0.5-5.7,1.4c-1.7,1-3,2.3-3.9,4s-1.4,3.7-1.4,5.9s0.5,4.2,1.5,5.9s2.4,3,4.1,4
			c1.8,1,3.8,1.4,6,1.4c1.3,0,2.6-0.2,3.9-0.7c1.4-0.5,2.5-1.1,3.4-1.8c0.5-0.4,0.7-0.8,0.7-1.3s-0.3-0.9-0.7-1.3
			c-0.4-0.3-0.8-0.4-1.2-0.4c-0.5,0-0.9,0.2-1.3,0.5c-0.5,0.4-1.3,0.8-2.1,1.1c-0.9,0.3-1.7,0.5-2.6,0.5c-1.6,0-2.9-0.3-4.1-1
			c-1.2-0.7-2.1-1.6-2.8-2.8c-0.5-0.8-0.7-1.6-0.9-2.6h15.5c0.5,0,1-0.2,1.3-0.5c0.4-0.3,0.5-0.8,0.5-1.3c0-2.1-0.4-4-1.2-5.7
			C177.1,28.5,175.9,27.2,174.4,26.3z M165,29.4c1.1-0.7,2.4-1,4-1c1.4,0,2.5,0.3,3.5,0.9s1.7,1.5,2.2,2.6c0.4,0.8,0.6,1.6,0.7,2.5
			h-13.6c0.1-0.8,0.4-1.5,0.7-2.2C163,31,163.9,30.1,165,29.4z"/>
		<path d="M185.6,25c-0.6,0-1.1,0.2-1.5,0.6s-0.6,0.9-0.6,1.5v18.2c0,0.6,0.2,1.1,0.6,1.5c0.4,0.4,0.9,0.6,1.5,0.6s1.1-0.2,1.5-0.6
			c0.4-0.4,0.6-0.9,0.6-1.5V27.1c0-0.6-0.2-1.1-0.6-1.5C186.8,25.2,186.3,25,185.6,25z"/>
		<path d="M208.6,26c-1.5-0.8-3.2-1.2-5-1.2s-3.4,0.4-4.9,1.2c-0.8,0.4-1.5,1-2.1,1.6v-0.4c0-0.6-0.2-1.1-0.6-1.5
			c-0.4-0.4-0.9-0.6-1.5-0.6s-1.1,0.2-1.5,0.6s-0.6,0.9-0.6,1.5v18.2c0,0.6,0.2,1.1,0.6,1.5c0.4,0.4,0.9,0.6,1.5,0.6
			s1.1-0.2,1.5-0.6c0.4-0.4,0.6-0.9,0.6-1.5V33.8c0-1,0.3-1.9,0.8-2.7c0.5-0.8,1.3-1.4,2.2-1.9s2-0.7,3.1-0.7c1.3,0,2.4,0.2,3.3,0.7
			c1,0.5,1.7,1.2,2.3,2.2c0.6,1,0.9,2.2,0.9,3.8v10c0,0.6,0.2,1.1,0.6,1.5c0.4,0.4,0.9,0.6,1.5,0.6s1.1-0.2,1.5-0.6
			c0.4-0.4,0.6-0.9,0.6-1.5v-10c0-2.3-0.4-4.2-1.3-5.7C211.3,28,210.1,26.8,208.6,26z"/>
		<path d="M238.5,30.3c-1-1.7-2.3-3-4-4s-3.6-1.4-5.8-1.4s-4.2,0.5-5.8,1.4c-1.7,1-3,2.3-4,4s-1.4,3.7-1.4,5.9s0.4,4.2,1.3,5.9
			c0.9,1.7,2.1,3,3.7,4c1.6,1,3.4,1.4,5.4,1.4c1.9,0,3.5-0.5,5-1.4c1.3-0.8,2.3-2,3.1-3.4v2.1c0,1.8-0.3,3.3-1,4.5s-1.5,2.1-2.6,2.8
			c-1.1,0.6-2.3,0.9-3.6,0.9c-1.4,0-2.7-0.3-3.8-0.8s-2-1.2-2.8-2.2c-0.3-0.4-0.8-0.7-1.3-0.8s-1,0-1.5,0.3
			c-0.4,0.3-0.7,0.7-0.8,1.2s0,1,0.4,1.4c1.2,1.5,2.6,2.6,4.3,3.3c1.7,0.8,3.5,1.1,5.4,1.1c2.2,0,4.2-0.5,5.9-1.6c1.7-1,3-2.4,4-4.2
			s1.4-3.7,1.4-5.9V36C240,34,239.5,32,238.5,30.3z M232.5,42.9c-1.1,0.7-2.3,1-3.8,1c-1.4,0-2.7-0.3-3.8-1s-1.9-1.6-2.6-2.7
			c-0.6-1.1-0.9-2.5-0.9-4s0.3-2.8,0.9-4c0.6-1.2,1.5-2.1,2.6-2.7c1.1-0.7,2.3-1,3.8-1c1.4,0,2.7,0.3,3.8,1s1.9,1.6,2.6,2.7
			c0.6,1.2,0.9,2.5,0.9,4s-0.3,2.8-0.9,4C234.5,41.3,233.6,42.2,232.5,42.9z"/>
	</g>
</g>
</svg>
